<?xml version="1.0" encoding="UTF-8"?>
<svg xmlns="http://www.w3.org/2000/svg" xmlns:xlink="http://www.w3.org/1999/xlink" viewBox="0 0 50 50" width="50px" height="50px">
<g id="surface136618293">
<path style=" stroke:none;fill-rule:nonzero;fill:rgb(100%,100%,100%);fill-opacity:1;" d="M 33.539062 2.648438 L 16 12.679688 L 8.261719 8.25 C 7.78125 8.738281 7.339844 9.257812 6.929688 9.789062 L 16 14.988281 L 35.761719 3.679688 C 35.039062 3.289062 34.300781 2.949219 33.539062 2.648438 Z M 38.832031 5.617188 L 16 18.679688 L 5.117188 12.449219 C 4.777344 13.019531 4.46875 13.609375 4.1875 14.210938 L 16 20.992188 L 40.46875 6.992188 C 39.949219 6.511719 39.398438 6.058594 38.832031 5.621094 Z M 42.75 9.382812 L 16 24.679688 L 3.019531 17.242188 C 2.808594 17.890625 2.640625 18.558594 2.5 19.242188 L 16 26.992188 L 43.960938 10.992188 C 43.582031 10.441406 43.179688 9.902344 42.75 9.382812 Z M 45.71875 14 L 16 31 L 2.046875 23 C 2.03125 23.332031 2 23.664062 2 24 C 2 36.703125 12.296875 47 25 47 C 37.703125 47 48 36.703125 48 24 C 48 20.414062 47.179688 17.023438 45.71875 14 Z M 45.71875 14 "/>
</g>
</svg>
